<svg width="20" height="19" viewBox="0 0 20 19" fill="none" xmlns="http://www.w3.org/2000/svg">
<path d="M9.66754 0.250718C4.4006 0.250718 0.133545 4.52135 0.133545 9.78471C0.133545 13.9993 2.86503 17.5716 6.65063 18.8319C7.12911 18.9219 7.30192 18.6269 7.30192 18.3719C7.30192 18.1454 7.29655 17.5466 7.29298 16.7517C4.63955 17.3261 4.08062 15.47 4.08062 15.47C3.64623 14.3712 3.01937 14.0762 3.01937 14.0762C2.15654 13.4869 3.08789 13.4994 3.08789 13.4994C4.04367 13.5643 4.54659 14.4796 4.54659 14.4796C5.39691 15.9383 6.77755 15.5164 7.32396 15.2709C7.40739 14.6566 7.65587 14.2341 7.92639 13.9987C5.80985 13.7598 3.58425 12.9405 3.58425 9.28716C3.58425 8.24378 3.9537 7.39406 4.56447 6.72668C4.459 6.48774 4.13603 5.51646 4.64849 4.20315C4.64849 4.20315 5.44636 3.94872 7.27034 5.18098C8.03365 4.96945 8.84404 4.86398 9.65383 4.85862C10.4642 4.86398 11.274 4.97005 12.0373 5.18098C13.8506 3.94872 14.6479 4.20315 14.6479 4.20315C15.1597 5.51646 14.8368 6.48714 14.7438 6.72668C15.3486 7.39406 15.7181 8.24438 15.7181 9.28716C15.7181 12.9488 13.4895 13.7562 11.3705 13.9892C11.7019 14.2746 12.0123 14.8616 12.0123 15.7524C12.0123 17.0276 12.0004 18.0549 12.0004 18.3653C12.0004 18.6132 12.1672 18.9111 12.6582 18.8152C16.4718 17.568 19.2003 13.9928 19.2003 9.78412C19.2003 4.52076 14.9333 0.250122 9.66635 0.250122L9.66754 0.250718Z" fill="white"/>
</svg>
