<svg width="20" height="20" viewBox="0 0 20 20" fill="none" xmlns="http://www.w3.org/2000/svg">
<path d="M19.0722 5.63703C19.0605 4.83552 18.9123 4.04037 18.6285 3.29074C18.1319 2.01065 17.1208 0.998445 15.8407 0.502928C15.1006 0.224465 14.3182 0.0751746 13.5262 0.0582339C12.5076 0.0127056 12.1847 0 9.59911 0C7.01353 0 6.68213 7.09978e-08 5.67098 0.0582339C4.88006 0.0751746 4.09761 0.224465 3.35751 0.502928C2.07743 0.998445 1.06522 2.01065 0.5697 3.29074C0.291237 4.03084 0.140888 4.81329 0.126065 5.60421C0.0805368 6.62383 0.0667725 6.94676 0.0667725 9.53234C0.0667725 12.1179 0.0667725 12.4483 0.126065 13.4605C0.141947 14.2525 0.291237 15.0338 0.5697 15.7761C1.06628 17.0551 2.07743 18.0673 3.35857 18.5628C4.09549 18.8508 4.87794 19.0139 5.67204 19.0393C6.69166 19.0848 7.01459 19.0986 9.60017 19.0986C12.1858 19.0986 12.5172 19.0986 13.5283 19.0393C14.3192 19.0234 15.1017 18.8741 15.8428 18.5956C17.1229 18.0991 18.1341 17.0868 18.6306 15.8078C18.9091 15.0667 19.0584 14.2853 19.0743 13.4922C19.1198 12.4737 19.1336 12.1507 19.1336 9.56411C19.1315 6.97852 19.1315 6.6503 19.0722 5.63703ZM9.59276 14.4219C6.8886 14.4219 4.69795 12.2312 4.69795 9.52705C4.69795 6.82288 6.8886 4.63223 9.59276 4.63223C12.2948 4.63223 14.4876 6.82288 14.4876 9.52705C14.4876 12.2312 12.2948 14.4219 9.59276 14.4219ZM14.6824 5.59256C14.0503 5.59256 13.541 5.08222 13.541 4.45118C13.541 3.82014 14.0503 3.3098 14.6824 3.3098C15.3124 3.3098 15.8227 3.82014 15.8227 4.45118C15.8227 5.08222 15.3124 5.59256 14.6824 5.59256Z" fill="white"/>
<path d="M9.59277 12.7067C11.3488 12.7067 12.7723 11.2831 12.7723 9.5271C12.7723 7.77107 11.3488 6.34753 9.59277 6.34753C7.83675 6.34753 6.41321 7.77107 6.41321 9.5271C6.41321 11.2831 7.83675 12.7067 9.59277 12.7067Z" fill="white"/>
</svg>
