<svg width="20" height="20" viewBox="0 0 20 20" fill="none" xmlns="http://www.w3.org/2000/svg">
<path d="M14.3058 0.0158691C14.9588 0.0158691 15.5739 0.141159 16.151 0.391738C16.7281 0.642317 17.233 0.984016 17.6658 1.41683C18.0986 1.84965 18.4403 2.35461 18.6909 2.9317C18.9415 3.50879 19.0668 4.12385 19.0668 4.77687V14.2989C19.0668 14.9519 18.9415 15.5708 18.6909 16.1554C18.4403 16.7401 18.0986 17.2489 17.6658 17.6817C17.233 18.1145 16.7281 18.4562 16.151 18.7068C15.5739 18.9574 14.9588 19.0827 14.3058 19.0827H4.761C4.10798 19.0827 3.49292 18.9574 2.91583 18.7068C2.33874 18.4562 1.83378 18.1145 1.40097 17.6817C0.968147 17.2489 0.626448 16.7401 0.375869 16.1554C0.12529 15.5708 0 14.9519 0 14.2989V4.77687C0 4.12385 0.12529 3.50879 0.375869 2.9317C0.626448 2.35461 0.968147 1.84965 1.40097 1.41683C1.83378 0.984016 2.33874 0.642317 2.91583 0.391738C3.49292 0.141159 4.10798 0.0158691 4.761 0.0158691H14.3058ZM6.56062 7.16877H4.16873V14.9139H6.56062V7.16877ZM5.37606 6.55371C5.69498 6.55371 5.97214 6.43981 6.20753 6.21201C6.44292 5.98421 6.56062 5.70326 6.56062 5.36915C6.56062 5.03505 6.44292 4.75409 6.20753 4.52629C5.97214 4.29849 5.69498 4.1846 5.37606 4.1846C5.04196 4.1846 4.75721 4.29849 4.52182 4.52629C4.28642 4.75409 4.16873 5.03505 4.16873 5.36915C4.16873 5.70326 4.28642 5.98421 4.52182 6.21201C4.75721 6.43981 5.04196 6.55371 5.37606 6.55371ZM14.8981 10.4263C14.8981 9.87958 14.7462 9.34425 14.4425 8.82031C14.1387 8.29637 13.7439 7.89772 13.2579 7.62436C12.8175 7.38138 12.305 7.25229 11.7203 7.23711C11.1356 7.22192 10.6079 7.32063 10.1371 7.53324V7.16877H7.74517V14.9139H10.1371V10.1757L11.1166 9.69734C11.2381 9.63659 11.4051 9.60622 11.6178 9.60622C11.8304 9.60622 11.9898 9.64418 12.0961 9.72012C12.1873 9.76568 12.2784 9.86439 12.3695 10.0163C12.4606 10.1681 12.5062 10.3048 12.5062 10.4263V14.9139H14.8981V10.4263Z" fill="white"/>
</svg>
