<svg width="20" height="15" viewBox="0 0 20 15" fill="none" xmlns="http://www.w3.org/2000/svg">
<path d="M18.8692 2.9423C18.6427 2.13827 18.0157 1.50768 17.2081 1.28477C15.721 0.887226 9.74294 0.887226 9.74294 0.887226C9.74294 0.887226 3.77618 0.87769 2.27362 1.28477C1.47018 1.50828 0.840189 2.13827 0.616085 2.9423C0.334168 4.46633 0.194103 6.00883 0.200659 7.55848C0.197679 9.098 0.337148 10.6381 0.616085 12.1526C0.840189 12.9566 1.47018 13.5872 2.27362 13.8137C3.76069 14.2113 9.74294 14.2113 9.74294 14.2113C9.74294 14.2113 15.7061 14.2113 17.2081 13.8137C18.0157 13.5872 18.6427 12.9572 18.8692 12.1526C19.1428 10.6381 19.2763 9.098 19.2668 7.55848C19.2763 6.00883 19.1458 4.46633 18.8692 2.9423ZM7.83329 10.4116V4.69282L12.8095 7.55848L7.83329 10.4116Z" fill="white"/>
</svg>
