Novidade! Atalhos do teclado … Os atalhos de teclado do Drive foram atualizados para oferecer navegação por letras iniciais
<?xml version="1.0" encoding="UTF-8"?>
<svg id="Layer_1" data-name="Layer 1" xmlns="http://www.w3.org/2000/svg" viewBox="0 0 343.57 173.49">
  <defs>
    <style>
      .cls-1 {
        letter-spacing: -.05em;
      }

      .cls-2 {
        font-size: 48.81px;
      }

      .cls-2, .cls-3 {
        fill: #231f20;
        font-family: Montserrat-Bold, Montserrat;
        font-weight: 700;
      }

      .cls-4 {
        letter-spacing: 0em;
      }

      .cls-5 {
        stroke-width: 0px;
      }

      .cls-6 {
        letter-spacing: -.07em;
      }

      .cls-3 {
        font-size: 19.07px;
      }

      .cls-7 {
        letter-spacing: 0em;
      }

      .cls-8 {
        letter-spacing: -.01em;
      }
    </style>
  </defs>
  <g id="Guides">
    <g>
      <text class="cls-2" transform="translate(31.27 123.83)"><tspan class="cls-1" x="0" y="0">W</tspan><tspan class="cls-7" x="54.08" y="0">e</tspan><tspan class="cls-6" x="84.88" y="0">b</tspan><tspan class="cls-1" x="115.34" y="0">T</tspan><tspan class="cls-7" x="142.82" y="0">e</tspan><tspan class="cls-4" x="173.62" y="0">c</tspan><tspan x="202.27" y="0">h</tspan></text>
      <text class="cls-3" transform="translate(32.34 80.02)"><tspan class="cls-8" x="0" y="0">P</tspan><tspan x="13.71" y="0">UC Minas</tspan></text>
      <g>
        <path class="cls-5" d="m284.35,58.21c0,1.74,0,3.6,0,5.46,0,.26.02.53-.02.79-.11.62-.47,1.02-1.13.97-.62-.06-.91-.47-.91-1.09,0-1.76,0-3.52,0-5.28,0-.31,0-.63,0-.83-.59-.3-1.17-.47-1.57-.84-.74-.68-.68-4.22,0-4.95.74-.81,4.39-.81,5.13,0,.69.76.71,4.35-.04,5.02-.37.33-.9.48-1.46.76Zm-1.98-4.21v1.91h1.84v-1.91h-1.84Z"/>
        <path class="cls-5" d="m275.5,44.69c-.16-2.65.46-3.11,2.98-3.12,2.69-.01,3.14.59,3.07,3.09-.07,2.79-.29,3.07-3.06,3.07-.42,0-.84.01-1.26-.01-1.06-.06-1.69-.7-1.73-1.75-.02-.45,0-.89,0-1.28Zm2.09.9h1.84v-1.89h-1.84v1.89Z"/>
        <path class="cls-5" d="m276.81,52.54c.2,2.93-.76,3.15-3.06,3.15-2.21,0-3.18-.26-3.01-2.99.03-.5,0-1,.02-1.5.05-.93.73-1.63,1.67-1.66.89-.04,1.79-.03,2.68,0,.97.04,1.65.75,1.69,1.72.02.45,0,.89,0,1.28Zm-2.1-.91h-1.85v1.92h1.85v-1.92Z"/>
        <path class="cls-5" d="m256.87,46.96c-1.23-.58-2.36-1.06-3.42-1.67-.21-.12-.3-.83-.15-1.08.18-.29.77-.6,1.06-.51,1.02.32,2.02.75,2.95,1.26.27.15.46.76.4,1.11-.05.31-.5.55-.84.89Z"/>
        <path class="cls-5" d="m259.46,79.33c.21-.35.32-.66.52-.87.6-.62,1.23-1.21,1.87-1.79.55-.5,1.22-.52,1.6-.05.45.55.29,1.08-.18,1.53-.66.63-1.3,1.3-2.03,1.85-.25.19-.75.23-1.06.12-.28-.1-.46-.49-.72-.79Z"/>
        <path class="cls-5" d="m265.96,29.43c.15.1.52.24.71.5.53.71.99,1.47,1.47,2.22.36.56.35,1.12-.22,1.52-.6.41-1.12.11-1.48-.39-.53-.74-1.04-1.51-1.49-2.31-.41-.73.02-1.51,1.01-1.54Z"/>
        <path class="cls-5" d="m284.34,26.47c0,.45.03.89,0,1.34-.06.7-.51,1.12-1.11,1.07-.68-.06-.93-.5-.94-1.13,0-.89,0-1.78,0-2.67,0-.62.32-1.03.92-1.08.65-.05,1.03.37,1.11.99.06.49.01.99.01,1.49,0,0,0,0,0,0Z"/>
        <path class="cls-5" d="m274.72,30.19c-.15-.14-.57-.35-.7-.68-.35-.9-.61-1.84-.84-2.78-.15-.61.08-1.11.73-1.27.61-.16,1.03.15,1.21.72.3.89.58,1.79.8,2.71.18.73-.28,1.3-1.21,1.3Z"/>
        <path class="cls-5" d="m257.8,69.21c.38.34.81.55.88.85.08.33-.04.94-.28,1.09-.95.59-1.96,1.11-3,1.53-.25.1-.82-.2-1.01-.47-.17-.24-.15-.92.03-1.04,1.06-.69,2.19-1.28,3.37-1.95Z"/>
        <path class="cls-5" d="m252.54,63.92c-.83.02-1.2-.27-1.3-.84-.1-.57.18-1,.74-1.12.97-.22,1.94-.42,2.92-.56.55-.08.97.21,1.11.77.14.57-.09,1.03-.64,1.17-1.01.26-2.04.42-2.83.58Z"/>
        <path class="cls-5" d="m257.96,36.82c-.02-.92.8-1.47,1.46-1.01.89.63,1.73,1.35,2.49,2.14.2.21.17.91-.03,1.17-.2.25-.9.44-1.12.29-.92-.63-1.75-1.39-2.6-2.13-.14-.12-.16-.37-.2-.46Z"/>
        <path class="cls-5" d="m252.38,52.65c.78.1,1.56.2,2.33.3.67.09,1.06.45.99,1.16-.06.59-.58.92-1.28.85-.75-.08-1.51-.16-2.26-.26-.96-.12-1.41-.55-1.31-1.22.09-.63.58-.9,1.52-.84Z"/>
        <path class="cls-5" d="m313.16,43.42c-.05-.99-.78-1.6-1.78-1.63-.45-.01-.9.05-1.34-.03-.28-.05-.66-.24-.74-.46-.09-.27.03-.67.19-.93.2-.33.55-.56.82-.85.88-.95.88-1.84,0-2.76-.47-.49-.96-.97-1.44-1.46-2.03-2.07-2.41-2.08-4.43-.06-.28.28-.51.44-.95.26-.45-.19-.48-.48-.47-.87.01-.47.02-.95-.01-1.42-.05-.92-.75-1.63-1.68-1.65-1.26-.03-2.52-.03-3.79,0-.92.02-1.62.74-1.67,1.67-.03.5.04,1.01-.03,1.5-.04.28-.24.64-.47.74-.22.09-.63-.03-.85-.19-.4-.29-.71-.7-1.09-1.03-.56-.48-1.18-.6-1.91-.3-.32.13-.76.2-1.08.09-3.49-1.2-7.06-1.53-10.72-1.06-4.5.59-8.49,2.37-11.92,5.31-4.51,3.85-7.23,8.74-8.11,14.63-.76,5.11.08,9.95,2.49,14.5,2.45,4.63,6.06,8.08,10.82,10.31.4.19.62.39.59.88-.04.89.02,1.79-.03,2.68-.02.28-.23.62-.45.79-.59.46-1.03.99-1.07,1.75-.04.92-.09,1.84-.02,2.75.11,1.3.98,2.08,2.29,2.15.49.03.99,0,1.59,0,0,1.18,0,2.25,0,3.32.02,1.76.88,2.62,2.62,2.62,2.87,0,5.73,0,8.6,0,1.75,0,2.62-.86,2.63-2.6,0-1.07,0-2.14,0-3.34.58,0,1.09.08,1.56-.02.57-.13,1.2-.3,1.62-.66,1.14-.99,1.18-4.73-.01-5.61-.82-.6-.84-1.27-.82-2.07.01-.55.05-1.11,0-1.66-.06-.57.2-.83.68-1.06,4.85-2.3,8.48-5.86,10.91-10.64.54-1.06.52-1.6-.1-1.93-.64-.35-1.19-.06-1.72,1-1.55,3.06-3.69,5.62-6.45,7.64-1,.73-2.09,1.32-3.27,2.05v-5.64c1.45-.26,1.91-.79,1.92-2.2,0-.76.02-1.53-.02-2.29-.06-.96-.63-1.59-1.58-1.65-.94-.06-1.89-.07-2.84,0-.98.07-1.57.73-1.62,1.71-.03.68-.01,1.37-.01,2.05,0,1.63.38,2.09,1.98,2.4v11.52h-1.47v-.9c0-2.13-.03-4.26.01-6.39.03-1.21-.36-2.17-1.23-3.02-2.27-2.23-4.49-4.51-6.73-6.76-.2-.2-.38-.41-.57-.6,1.05-1.41,1-2.08-.19-3.27-.45-.45-.87-.91-1.34-1.34-.85-.78-1.76-.76-2.59.03-.59.56-1.17,1.14-1.73,1.73-.72.76-.72,1.78,0,2.55.41.44.85.86,1.27,1.29,1.21,1.21,1.6,1.28,3.11.52.07.06.16.11.24.18,2.42,2.45,4.86,4.88,7.25,7.36.27.28.42.79.43,1.2.05,1.73.02,3.47.02,5.21v2.22h-2.11v-.89c0-2.34,0-4.68,0-7.02,0-.18,0-.37,0-.55-.04-.76-.45-1.23-1.06-1.23-.62,0-.99.45-.99,1.25,0,2.52,0,5.05,0,7.57v.86h-3.1v-7.32c1.4-.33,1.89-.78,1.94-1.87.04-.87.04-1.74,0-2.6-.06-1.07-.78-1.72-1.85-1.74-.79-.01-1.58-.01-2.37,0-1.14.02-1.84.73-1.86,1.89,0,.55,0,1.1,0,1.66,0,1.89.2,2.17,1.95,2.69v7.28h-1.36c0-1.18-.06-2.31.02-3.43.08-1.13-.31-1.76-1.39-2.23-1.32-.56-2.6-1.28-3.76-2.13-5.25-3.84-8.31-9.01-8.9-15.49-.62-6.78,1.5-12.68,6.36-17.46,5.01-4.92,11.1-6.8,18.05-5.89,1.12.15,2.22.48,3.33.73.05.11.1.22.15.32-.32.23-.67.43-.95.7-.8.8-.8,1.83-.03,2.66.29.31.58.61.89.89.31.28.48.61.17.95-.19.21-.49.4-.76.46-.41.08-.84.01-1.26.02-1.11.03-1.79.66-1.81,1.75-.03,1.24-.03,2.47,0,3.71.02,1.03.66,1.66,1.68,1.71.45.02.89.02,1.34,0,.4-.02.67.06.85.49.18.44.05.68-.25.96-.33.3-.64.62-.94.95-.64.71-.68,1.74-.03,2.44.84.9,1.71,1.79,2.62,2.63.82.76,1.71.72,2.54-.02.31-.28.61-.58.89-.89.27-.31.58-.52.93-.22.22.19.4.5.45.78.08.43,0,.89.02,1.34.04,1.07.72,1.76,1.8,1.77,1.13.02,2.26,0,3.39,0,1.29,0,1.94-.64,1.97-1.92,0-.29.04-.58,0-.87-.12-.78.2-1.2,1.07-1.25.04.26.13.54.12.81-.04,1-.1,2-.16,2.99-.05.83.22,1.28.84,1.36.67.08,1.07-.29,1.17-1.16.08-.7.12-1.41.17-1.97.61-.27,1.19-.38,1.57-.72.96-.85,1.86-1.78,2.73-2.73.62-.67.58-1.6-.02-2.29-.31-.36-.71-.65-.97-1.03-.18-.25-.28-.62-.26-.93.03-.52.47-.53.88-.52.42.01.84.01,1.26,0,1.01-.04,1.7-.65,1.75-1.66.06-1.29.06-2.58,0-3.86Zm-36,20.33c-.45-.44-.88-.85-1.37-1.32.48-.46.91-.88,1.34-1.29.4.44.8.9,1.27,1.42-.33.32-.79.76-1.24,1.2Zm9.74,28.89c-2.93-.04-5.87-.01-8.87-.01-.02-.32-.04-.6-.07-.94h9.67c.21.7.02.96-.73.96Zm.7-3.08c-3.08,0-6.12,0-9.15-.02-.16,0-.32-.23-.48-.35.16-.15.32-.42.49-.42,2.91-.03,5.82-.01,8.73-.02.57,0,.58.3.42.81Zm2.51-23.49h1.84v1.92h-1.84v-1.92Zm-11,4.19c-.05.64.09,1.39-.22,1.84-.18.27-1.36.29-1.56.03-.32-.43-.21-1.19-.29-1.87h2.07Zm-3.26,13.54c2.34-.02,4.68,0,7.02,0,2.63,0,5.26.02,7.88-.01.71,0,.91.23.89.91-.07,2.33.35,2-1.99,2.01-4.86.02-9.72,0-14.58,0-1.04,0-1.05-.01-1.05-1.06,0-2.22-.18-1.82,1.84-1.84Zm35.22-36.9c-1.52-.04-2.97-.08-3.74,1.75-.79,1.87.3,2.85,1.43,3.91-.74.71-1.44,1.38-2.23,2.13-.97-1-1.93-2.16-3.79-1.38-1.82.76-1.83,2.16-1.74,3.76h-3.04c-.02-1.47.12-2.98-1.74-3.74-1.83-.75-2.82.22-3.84,1.4-.71-.75-1.39-1.47-2.14-2.26,1.05-.93,2.08-1.94,1.33-3.79-.74-1.81-2.14-1.84-3.71-1.76v-3.05c1.51,0,2.97.07,3.7-1.76.73-1.81-.2-2.83-1.36-3.84.75-.72,1.46-1.4,2.24-2.14.92.99,1.89,2.11,3.75,1.32,1.8-.77,1.82-2.17,1.73-3.79h3.06c-.03,1.53-.12,3.03,1.73,3.79,1.82.75,2.82-.22,3.84-1.44.73.76,1.41,1.47,2.15,2.25-1,.99-2.16,1.96-1.36,3.83.77,1.8,2.16,1.83,3.76,1.76v3.07Z"/>
        <path class="cls-5" d="m292.31,45.58c0-4.95,4.47-8.37,9.03-7.11.92.25,1.27.68,1.09,1.33-.18.65-.71.86-1.6.63-2.83-.73-5.56.86-6.29,3.66-.53,2.04.25,4.19,1.96,5.45,1.61,1.18,3.9,1.24,5.65.15,1.71-1.07,2.65-3.25,2.27-5.26-.03-.18-.08-.36-.12-.54-.16-.74.12-1.31.71-1.45.57-.14,1.07.2,1.27.9.44,1.51.42,3-.15,4.48-1.17,3.06-4.06,4.93-7.28,4.7-3.01-.22-5.72-2.59-6.37-5.6-.11-.51-.14-1.04-.18-1.35Z"/>
        <path class="cls-5" d="m303.03,45.35c.01,2.02-1.56,3.61-3.57,3.62-2.02.01-3.6-1.56-3.61-3.58,0-2.03,1.55-3.61,3.57-3.62,2.02,0,3.6,1.55,3.61,3.58Zm-2.06.05c.01-.87-.66-1.56-1.51-1.56-.86,0-1.54.68-1.53,1.55,0,.85.63,1.49,1.48,1.51.88.02,1.56-.63,1.57-1.5Z"/>
      </g>
    </g>
  </g>
</svg>