<svg width="22137" height="7998" viewBox="0 0 22137 7998" fill="none" xmlns="http://www.w3.org/2000/svg">
<path d="M800.067 3050.6C630.6 3050.6 477.667 3023.73 341.267 2970C204.867 2914.2 91.2003 2833.6 0.266992 2728.2L393.967 2263.2C451.834 2333.47 508.667 2387.2 564.467 2424.4C620.267 2459.53 678.134 2477.1 738.067 2477.1C895.134 2477.1 973.667 2387.2 973.667 2207.4V1382.8H235.867V831H1695.97V2164C1695.97 2461.6 1619.5 2683.77 1466.57 2830.5C1313.63 2977.23 1091.47 3050.6 800.067 3050.6ZM3169.15 3050.6C2993.48 3050.6 2830.21 3022.7 2679.35 2966.9C2530.55 2911.1 2401.38 2832.57 2291.85 2731.3C2182.31 2627.97 2096.55 2507.07 2034.55 2368.6C1974.61 2230.13 1944.65 2079.27 1944.65 1916C1944.65 1750.67 1974.61 1599.8 2034.55 1463.4C2096.55 1324.93 2182.31 1205.07 2291.85 1103.8C2401.38 1000.47 2530.55 920.9 2679.35 865.1C2830.21 809.3 2993.48 781.4 3169.15 781.4C3346.88 781.4 3510.15 809.3 3658.95 865.1C3807.75 920.9 3936.91 1000.47 4046.45 1103.8C4155.98 1205.07 4240.71 1324.93 4300.65 1463.4C4362.65 1599.8 4393.65 1750.67 4393.65 1916C4393.65 2079.27 4362.65 2230.13 4300.65 2368.6C4240.71 2507.07 4155.98 2627.97 4046.45 2731.3C3936.91 2832.57 3807.75 2911.1 3658.95 2966.9C3510.15 3022.7 3346.88 3050.6 3169.15 3050.6ZM3169.15 2458.5C3237.35 2458.5 3300.38 2446.1 3358.25 2421.3C3418.18 2396.5 3469.85 2361.37 3513.25 2315.9C3558.71 2268.37 3593.85 2211.53 3618.65 2145.4C3643.45 2077.2 3655.85 2000.73 3655.85 1916C3655.85 1831.27 3643.45 1755.83 3618.65 1689.7C3593.85 1621.5 3558.71 1564.67 3513.25 1519.2C3469.85 1471.67 3418.18 1435.5 3358.25 1410.7C3300.38 1385.9 3237.35 1373.5 3169.15 1373.5C3100.95 1373.5 3036.88 1385.9 2976.95 1410.7C2919.08 1435.5 2867.41 1471.67 2821.95 1519.2C2778.55 1564.67 2744.45 1621.5 2719.65 1689.7C2694.85 1755.83 2682.45 1831.27 2682.45 1916C2682.45 2000.73 2694.85 2077.2 2719.65 2145.4C2744.45 2211.53 2778.55 2268.37 2821.95 2315.9C2867.41 2361.37 2919.08 2396.5 2976.95 2421.3C3036.88 2446.1 3100.95 2458.5 3169.15 2458.5ZM5697.68 3050.6C5364.95 3050.6 5105.58 2960.7 4919.58 2780.9C4733.58 2601.1 4640.58 2348.97 4640.58 2024.5V831H5372.18V2002.8C5372.18 2168.13 5402.15 2285.93 5462.08 2356.2C5522.01 2424.4 5602.61 2458.5 5703.88 2458.5C5807.21 2458.5 5887.81 2424.4 5945.68 2356.2C6005.61 2285.93 6035.58 2168.13 6035.58 2002.8V831H6754.78V2024.5C6754.78 2348.97 6661.78 2601.1 6475.78 2780.9C6289.78 2960.7 6030.41 3050.6 5697.68 3050.6ZM7090.14 3001V831H8134.84C8337.37 831 8512 864.067 8658.74 930.2C8807.54 996.333 8922.24 1091.4 9002.84 1215.4C9083.44 1337.33 9123.74 1482 9123.74 1649.4C9123.74 1816.8 9083.44 1961.47 9002.84 2083.4C8922.24 2203.27 8807.54 2295.23 8658.74 2359.3C8512 2423.37 8337.37 2455.4 8134.84 2455.4H7496.24L7821.74 2154.7V3001H7090.14ZM8389.04 3001L7855.84 2210.5H8630.84L9170.24 3001H8389.04ZM7821.74 2235.3L7496.24 1903.6H8088.34C8189.6 1903.6 8264 1880.87 8311.54 1835.4C8361.14 1789.93 8385.94 1727.93 8385.94 1649.4C8385.94 1570.87 8361.14 1508.87 8311.54 1463.4C8264 1417.93 8189.6 1395.2 8088.34 1395.2H7496.24L7821.74 1063.5V2235.3ZM9400 3001V831H10001.4L11105 2151.6H10826V831H11539V3001H10937.6L9834 1680.4H10113V3001H9400ZM12561.1 1637H13528.3V2164H12561.1V1637ZM12610.7 2449.2H13695.7V3001H11891.5V831H13655.4V1382.8H12610.7V2449.2ZM14520.2 3001V2049.3L14687.6 2486.4L13701.8 831H14473.7L15140.2 1962.5H14690.7L15363.4 831H16070.2L15090.6 2486.4L15251.8 2049.3V3001H14520.2Z" fill="#332264"/>
<path d="M19124.6 272.602C19963.2 272.602 20642.9 952.362 20642.9 1790.89C20642.9 2629.41 19963.2 3309.18 19124.6 3309.18C18286.1 3309.17 17606.4 2629.41 17606.4 1790.89C17606.4 952.362 18286.1 272.602 19124.6 272.602Z" fill="#F5C01A" stroke="white" stroke-width="121.463"/>
<path d="M17577.3 2114.17C17469.3 2242.05 17402.2 2341.28 17368.1 2415.36C17332.5 2492.9 17341.1 2524.46 17348.2 2535.09C17356.2 2547.06 17383.6 2565.51 17461.3 2566.44C17534.9 2567.33 17635.7 2552.13 17762 2520.96C18267.3 2396.17 19116.4 2031.99 20048.9 1587.27L20120.5 1682.41L20075.1 1642.08L20101.3 1665.4C20120.5 1682.42 20120.5 1682.43 20120.5 1682.44C20120.5 1682.45 20120.4 1682.46 20120.4 1682.48C20120.4 1682.52 20120.4 1682.56 20120.3 1682.62C20120.2 1682.73 20120.1 1682.88 20119.9 1683.07C20119.6 1683.45 20119.1 1684 20118.4 1684.71C20117.2 1686.12 20115.3 1688.17 20112.9 1690.83C20108 1696.14 20100.8 1703.89 20091.4 1713.85C20072.6 1733.77 20044.9 1762.51 20008.7 1798.24C19936.4 1869.7 19830.3 1969.18 19694.7 2081.94C19423.8 2307.28 19034.1 2586.57 18559.7 2800.87C18090.7 3012.7 17654.3 3183.22 17315.4 3268.57C17146.4 3311.14 16997.5 3333.63 16879.2 3327.56C16762.8 3321.59 16658.8 3286.65 16607 3195.54C16565.4 3122.36 16544.2 3041.7 16553.3 2953.17C16562.4 2865.43 16600.6 2775 16669.1 2680.5C16805 2493.13 17068 2279.07 17499.9 2022.77L17577.3 2114.17Z" fill="#332264" stroke="white" stroke-width="121.463"/>
<path d="M21395.7 850.829C21398.5 894.664 21386.5 948.842 21364.8 1005.92C21342.6 1064.32 21308.3 1130.56 21261.5 1199.94C21167.7 1338.79 21022 1492.57 20816.8 1622.99C20799 1634.31 20781.6 1645.03 20764.7 1655.14C20754.9 1712.23 20731.4 1769.97 20694.9 1822.5C20643.3 1896.92 20572.7 1950.7 20498.1 1975.76C20423.5 2000.82 20340.6 1997.98 20273 1951.06L20222.3 1915.84L20258.3 1865.7C20281.5 1833.54 20300.2 1803.64 20315.1 1776.36C20228 1748.81 20176 1680.22 20135.7 1616.88C20095 1552.79 20054.5 1475.49 20067.9 1383.59C20038.1 1385.58 20004.5 1389.79 19967.5 1396.73L19906.8 1408.09L19896.4 1347.2C19882.7 1266.08 19915.3 1189.83 19969.7 1132.91C20024 1075.99 20102.7 1034.98 20192 1019.81C20255.1 1009.09 20317.4 1012.31 20373.3 1027.75C20388 1017.84 20403.4 1007.81 20419.4 997.663C20624.6 867.245 20825.7 800.638 20991.2 774.697C21073.9 761.735 21148.4 758.817 21210.7 763.495C21271.6 768.069 21325.8 780.256 21364.3 801.349L21393.7 817.423L21395.7 850.829Z" fill="#332264" stroke="white" stroke-width="121.463"/>
<circle cx="20812.3" cy="1186.88" r="91.0972" transform="rotate(57.5625 20812.3 1186.88)" fill="white"/>
<circle cx="16980.8" cy="1019.6" r="60.7315" fill="white"/>
<circle cx="17314.8" cy="989.233" r="91.0972" fill="white"/>
<circle cx="17120.5" cy="1335.4" r="121.463" fill="white"/>
<line x1="17511.1" y1="1946.73" x2="17626.4" y2="2141.07" stroke="white" stroke-width="103.243"/>
<path d="M308.367 6969V4099H1841.77C2238.1 4099 2530.57 4170.07 2719.17 4312.2C2907.77 4451.6 3002.07 4630.63 3002.07 4849.3C3002.07 4994.17 2961.07 5124 2879.07 5238.8C2799.8 5350.87 2683.63 5439.7 2530.57 5505.3C2377.5 5570.9 2188.9 5603.7 1964.77 5603.7L2046.77 5382.3C2270.9 5382.3 2463.6 5413.73 2624.87 5476.6C2788.87 5539.47 2914.6 5631.03 3002.07 5751.3C3092.27 5868.83 3137.37 6010.97 3137.37 6177.7C3137.37 6426.43 3033.5 6620.5 2825.77 6759.9C2620.77 6899.3 2320.1 6969 1923.77 6969H308.367ZM1259.57 6292.5H1841.77C1948.37 6292.5 2027.63 6273.37 2079.57 6235.1C2134.23 6196.83 2161.57 6140.8 2161.57 6067C2161.57 5993.2 2134.23 5937.17 2079.57 5898.9C2027.63 5860.63 1948.37 5841.5 1841.77 5841.5H1193.97V5201.9H1710.57C1819.9 5201.9 1899.17 5184.13 1948.37 5148.6C2000.3 5110.33 2026.27 5057.03 2026.27 4988.7C2026.27 4917.63 2000.3 4864.33 1948.37 4828.8C1899.17 4793.27 1819.9 4775.5 1710.57 4775.5H1259.57V6292.5ZM3167.86 6969L4422.46 4099H5373.66L6628.26 6969H5627.86L4701.26 4558.2H5078.46L4151.86 6969H3167.86ZM3914.06 6468.8L4160.06 5771.8H5480.26L5726.26 6468.8H3914.06ZM8226.84 7034.6C7997.24 7034.6 7784.04 6999.07 7587.24 6928C7393.18 6854.2 7223.71 6750.33 7078.84 6616.4C6936.71 6482.47 6826.01 6323.93 6746.74 6140.8C6667.48 5957.67 6627.84 5755.4 6627.84 5534C6627.84 5312.6 6667.48 5110.33 6746.74 4927.2C6826.01 4744.07 6936.71 4585.53 7078.84 4451.6C7223.71 4317.67 7393.18 4215.17 7587.24 4144.1C7784.04 4070.3 7997.24 4033.4 8226.84 4033.4C8508.38 4033.4 8757.11 4082.6 8973.04 4181C9191.71 4279.4 9372.11 4421.53 9514.24 4607.4L8903.34 5152.7C8818.61 5046.1 8724.31 4964.1 8620.44 4906.7C8519.31 4846.57 8404.51 4816.5 8276.04 4816.5C8174.91 4816.5 8083.34 4832.9 8001.34 4865.7C7919.34 4898.5 7848.28 4946.33 7788.14 5009.2C7730.74 5072.07 7685.64 5148.6 7652.84 5238.8C7620.04 5326.27 7603.64 5424.67 7603.64 5534C7603.64 5643.33 7620.04 5743.1 7652.84 5833.3C7685.64 5920.77 7730.74 5995.93 7788.14 6058.8C7848.28 6121.67 7919.34 6169.5 8001.34 6202.3C8083.34 6235.1 8174.91 6251.5 8276.04 6251.5C8404.51 6251.5 8519.31 6222.8 8620.44 6165.4C8724.31 6105.27 8818.61 6021.9 8903.34 5915.3L9514.24 6460.6C9372.11 6643.73 9191.71 6785.87 8973.04 6887C8757.11 6985.4 8508.38 7034.6 8226.84 7034.6ZM10658.7 6354L10605.4 5292.1L11687.8 4099H12741.5L11527.9 5435.6L10990.8 5985L10658.7 6354ZM9793.62 6969V4099H10744.8V6969H9793.62ZM11679.6 6969L10835 5853.8L11462.3 5189.6L12798.9 6969H11679.6ZM13814.3 5165H15093.5V5862H13814.3V5165ZM13879.9 6239.2H15314.9V6969H12928.7V4099H15261.6V4828.8H13879.9V6239.2ZM15687.4 6969V4099H16482.8L17942.4 5845.6H17573.4V4099H18516.4V6969H17721L16261.4 5222.4H16630.4V6969H15687.4ZM18982.6 6969V4099H20397.1C20716.9 4099 20998.4 4157.77 21241.7 4275.3C21485 4390.1 21674.9 4554.1 21811.6 4767.3C21948.3 4980.5 22016.6 5234.7 22016.6 5529.9C22016.6 5827.83 21948.3 6084.77 21811.6 6300.7C21674.9 6513.9 21485 6679.27 21241.7 6796.8C20998.4 6911.6 20716.9 6969 20397.1 6969H18982.6ZM19950.2 6214.6H20356.1C20492.8 6214.6 20611.7 6188.63 20712.8 6136.7C20816.7 6084.77 20897.3 6008.23 20954.7 5907.1C21012.1 5803.23 21040.8 5677.5 21040.8 5529.9C21040.8 5385.03 21012.1 5262.03 20954.7 5160.9C20897.3 5059.77 20816.7 4983.23 20712.8 4931.3C20611.7 4879.37 20492.8 4853.4 20356.1 4853.4H19950.2V6214.6Z" fill="white"/>
</svg>
