<svg width="12358" height="2000" viewBox="0 0 12358 2000" fill="none" xmlns="http://www.w3.org/2000/svg">
<path d="M5208.33 333.024H5021.43C5006.85 333.024 4992.57 337.082 4980.17 344.743C4967.78 352.404 4957.76 363.366 4951.24 376.4L4690.87 897.145L4481.64 381.965C4475.76 367.501 4465.71 355.118 4452.76 346.399C4439.81 337.681 4424.55 333.024 4408.94 333.024H3064.51C3048.79 333.024 3033.44 337.743 3020.43 346.571C3007.43 355.399 2997.38 367.927 2991.58 382.535L2599.28 1370.54L2206.98 382.535C2201.18 367.927 2191.13 355.399 2178.13 346.571C2165.12 337.743 2149.77 333.024 2134.05 333.024H1197.79C1178.56 333.024 1160.01 340.08 1145.64 352.855C1131.28 365.629 1122.1 383.232 1119.86 402.323L989.537 1510.04H244.093L372.256 420.66C373.551 409.658 372.501 398.506 369.175 387.938C365.85 377.371 360.325 367.627 352.963 359.349C345.601 351.07 336.57 344.444 326.463 339.907C316.357 335.37 305.404 333.024 294.326 333.024H147.163L0.537452 1579.34C-0.756937 1590.34 0.29309 1601.49 3.61844 1612.06C6.9438 1622.63 12.4691 1632.37 19.8308 1640.65C27.1925 1648.93 36.2238 1655.56 46.3303 1660.09C56.4368 1664.63 67.3896 1666.98 78.4679 1666.98H1794.99L1813.45 1510.04H1224.94L1275.71 1078.47H1737.29L1755.75 921.532H1294.18L1344.95 489.959H2014.23L2438.14 1557.58C2450.96 1589.86 2473.17 1617.54 2501.9 1637.04C2530.63 1656.55 2564.55 1666.98 2599.28 1666.98C2634.01 1666.98 2667.93 1656.55 2696.66 1637.04C2725.39 1617.54 2747.6 1589.86 2760.42 1557.58L3184.33 489.959H3600.9L3462.43 1666.98H3697.83L3836.3 489.959H4291.01L4560.97 1156.94H4562.13L4502.12 1666.98H4737.53L4797.89 1153.92L5208.33 333.024Z" fill="white"/>
<line x1="6229.17" y1="20.8333" x2="6229.17" y2="1979.17" stroke="white" stroke-width="41.6667" stroke-linecap="round"/>
<path d="M12116.1 680.746C12153.6 680.746 12187 688.361 12216.3 703.592C12246.1 718.237 12269.6 741.084 12286.6 772.131C12303.6 802.593 12312.1 841.842 12312.1 889.878V1109.79C12312.1 1137.81 12289.3 1160.52 12261.3 1160.52H12225.7C12197.7 1160.52 12175 1137.81 12175 1109.79V910.967C12175 872.89 12166.5 844.771 12149.5 826.611C12133.1 808.451 12109.7 799.371 12079.2 799.371C12057.5 799.371 12037.9 804.058 12020.3 813.431C12003.3 822.218 11989.9 835.984 11979.9 854.73C11970.5 873.476 11965.8 897.494 11965.8 926.784V1109.79C11965.8 1137.81 11943.1 1160.52 11915.1 1160.52H11879.5C11851.5 1160.52 11828.8 1137.81 11828.8 1109.79V559.254C11828.8 531.234 11851.5 508.519 11879.5 508.519H11915.1C11943.1 508.519 11965.8 531.234 11965.8 559.254V777.753C11965.8 791.131 11948.9 796.939 11940.7 786.379V786.379C11937.3 781.991 11936.7 775.976 11939.6 771.21C11956.3 743.425 11979.1 721.764 12008 706.228C12039.7 689.24 12075.7 680.746 12116.1 680.746Z" fill="white"/>
<path d="M11540.6 1167.55C11489.7 1167.55 11444.3 1157.3 11404.4 1136.8C11364.6 1115.71 11333.3 1086.71 11310.4 1049.8C11288.2 1012.9 11277 971.013 11277 924.148C11277 876.698 11288.2 834.813 11310.4 798.493C11333.3 761.587 11364.6 732.883 11404.4 712.38C11444.3 691.291 11489.7 680.746 11540.6 680.746C11590.4 680.746 11633.8 691.291 11670.7 712.38C11693.4 725.01 11712.5 741.086 11727.9 760.608C11744.4 781.583 11734.1 810.954 11710.6 823.597L11690.2 834.52C11665.8 847.669 11636.2 837.118 11614.8 819.485C11609.9 815.526 11604.9 812.044 11599.5 809.038C11581.4 798.493 11561.4 793.221 11539.8 793.221C11516.3 793.221 11495.2 798.493 11476.5 809.038C11457.7 819.582 11442.8 834.52 11431.7 853.852C11421.1 873.183 11415.9 896.615 11415.9 924.148C11415.9 951.681 11421.1 975.113 11431.7 994.445C11442.8 1013.78 11457.7 1028.71 11476.5 1039.26C11495.2 1049.8 11516.3 1055.08 11539.8 1055.08C11561.4 1055.08 11581.4 1050.1 11599.5 1040.14C11604.8 1037.17 11609.8 1033.71 11614.6 1029.77C11636.3 1011.84 11666.2 1001.01 11690.9 1014.48L11710.8 1025.33C11734.2 1038.11 11744.3 1067.51 11727.7 1088.41C11712.3 1107.73 11693.3 1123.86 11670.7 1136.8C11633.8 1157.3 11590.4 1167.55 11540.6 1167.55Z" fill="white"/>
<path d="M10992.5 1167.55C10938.6 1167.55 10891.1 1157.01 10850.1 1135.92C10809.7 1114.83 10778.3 1086.12 10756.1 1049.8C10733.8 1012.9 10722.7 971.013 10722.7 924.148C10722.7 876.698 10733.5 834.813 10755.2 798.493C10777.5 761.587 10807.6 732.883 10845.7 712.38C10883.8 691.291 10926.8 680.746 10974.9 680.746C11021.2 680.746 11062.8 690.705 11099.7 710.622C11137.2 729.954 11166.7 758.073 11188.4 794.978C11210.1 831.298 11220.9 874.941 11220.9 925.906C11220.9 931.178 11220.6 937.329 11220 944.359V944.359C11219.1 954.838 11210.3 962.811 11199.7 962.811H10874.3C10852.2 962.811 10834.3 944.911 10834.3 922.83V922.83C10834.3 900.749 10852.2 882.849 10874.3 882.849H11102.8C11112.9 882.849 11115.8 896.542 11106.6 900.661V900.661C11100.5 903.436 11093.5 898.916 11092.9 892.18C11091.3 873.536 11086.5 856.952 11078.6 842.428C11068.6 824.269 11054.8 810.209 11037.3 800.251C11019.7 789.706 10999.2 784.434 10975.8 784.434C10952.3 784.434 10931.5 789.706 10913.4 800.251C10895.8 810.209 10882 824.561 10872.1 843.307C10862.1 861.467 10857.1 883.142 10857.1 908.332V929.421C10857.1 955.196 10862.7 978.042 10873.8 997.96C10885.5 1017.29 10901.7 1032.23 10922.2 1042.77C10943.3 1052.73 10967.9 1057.71 10996 1057.71C11021.2 1057.71 11043.1 1053.9 11061.9 1046.29C11065.4 1044.89 11068.9 1043.36 11072.4 1041.7C11098 1029.34 11130.5 1029.22 11149.7 1050.13L11156.5 1057.49C11174.1 1076.59 11174.8 1106.53 11153.7 1121.78C11139.4 1132.19 11123.4 1141 11105.8 1148.22C11073 1161.11 11035.2 1167.55 10992.5 1167.55Z" fill="white"/>
<path d="M10450.5 1160.52C10422.5 1160.52 10399.8 1137.81 10399.8 1109.79V712.149C10399.8 684.129 10377.1 661.414 10349.1 661.414H10253.7C10225.7 661.414 10203 638.699 10203 610.679V596.16C10203 568.14 10225.7 545.425 10253.7 545.425H10688.2C10716.3 545.425 10739 568.14 10739 596.16V610.679C10739 638.699 10716.3 661.414 10688.2 661.414H10592.9C10564.9 661.414 10542.1 684.129 10542.1 712.149V1109.79C10542.1 1137.81 10519.4 1160.52 10491.4 1160.52H10450.5Z" fill="white"/>
<path d="M9992.95 1167.55C9951.36 1167.55 9915.62 1158.76 9885.75 1141.19C9855.87 1123.61 9833.02 1096.96 9817.21 1061.23C9801.39 1024.91 9793.48 979.213 9793.48 924.148C9793.48 868.496 9801.68 822.804 9818.08 787.069C9835.07 751.335 9858.51 724.681 9888.38 707.107C9918.26 689.533 9953.11 680.746 9992.95 680.746C10037.5 680.746 10077.3 690.704 10112.5 710.622C10148.2 730.539 10176.3 758.658 10196.8 794.978C10217.9 831.298 10228.4 874.354 10228.4 924.148C10228.4 973.355 10217.9 1016.12 10196.8 1052.44C10176.3 1088.76 10148.2 1117.17 10112.5 1137.67C10077.3 1157.59 10037.5 1167.55 9992.95 1167.55ZM9764.25 1160.52C9736.23 1160.52 9713.52 1137.81 9713.52 1109.79V559.254C9713.52 531.234 9736.23 508.519 9764.25 508.519H9799.86C9827.88 508.519 9850.6 531.234 9850.6 559.254V783.555L9841.81 923.269L9844.45 1063.86V1109.79C9844.45 1137.81 9821.73 1160.52 9793.71 1160.52H9764.25ZM9969.22 1055.08C9992.07 1055.08 10012.3 1049.8 10029.9 1039.26C10048 1028.71 10062.4 1013.78 10072.9 994.444C10084 974.527 10089.6 951.095 10089.6 924.148C10089.6 896.615 10084 873.183 10072.9 853.851C10062.4 834.52 10048 819.582 10029.9 809.037C10012.3 798.493 9992.07 793.22 9969.22 793.22C9946.38 793.22 9925.87 798.493 9907.71 809.037C9889.55 819.582 9875.2 834.52 9864.66 853.851C9854.11 873.183 9848.84 896.615 9848.84 924.148C9848.84 951.095 9854.11 974.527 9864.66 994.444C9875.2 1013.78 9889.55 1028.71 9907.71 1039.26C9925.87 1049.8 9946.38 1055.08 9969.22 1055.08Z" fill="white"/>
<path d="M9393.78 1167.55C9339.89 1167.55 9292.44 1157.01 9251.43 1135.92C9211.01 1114.83 9179.67 1086.12 9157.41 1049.8C9135.15 1012.9 9124.02 971.013 9124.02 924.148C9124.02 876.698 9134.86 834.813 9156.53 798.493C9178.79 761.587 9208.96 732.883 9247.04 712.38C9285.12 691.291 9328.17 680.746 9376.21 680.746C9422.49 680.746 9464.08 690.705 9500.99 710.622C9538.48 729.954 9568.06 758.073 9589.74 794.978C9611.41 831.298 9622.25 874.941 9622.25 925.906C9622.25 931.178 9621.96 937.329 9621.37 944.359V944.359C9620.42 954.838 9611.6 962.811 9601.08 962.811H9275.6C9253.52 962.811 9235.62 944.911 9235.62 922.83V922.83C9235.62 900.749 9253.52 882.849 9275.6 882.849H9504.15C9514.19 882.849 9517.13 896.542 9507.98 900.661V900.661C9501.81 903.436 9494.81 898.916 9494.24 892.18C9492.64 873.536 9487.86 856.952 9479.9 842.428C9469.94 824.269 9456.17 810.209 9438.6 800.251C9421.02 789.706 9400.52 784.434 9377.09 784.434C9353.66 784.434 9332.86 789.706 9314.7 800.251C9297.13 810.209 9283.36 824.561 9273.4 843.307C9263.44 861.467 9258.46 883.142 9258.46 908.332V929.421C9258.46 955.196 9264.03 978.042 9275.16 997.96C9286.87 1017.29 9302.98 1032.23 9323.49 1042.77C9344.58 1052.73 9369.18 1057.71 9397.3 1057.71C9422.49 1057.71 9444.46 1053.9 9463.2 1046.29C9466.76 1044.89 9470.25 1043.36 9473.69 1041.7C9499.31 1029.34 9531.78 1029.22 9551.07 1050.13L9557.85 1057.49C9575.47 1076.59 9576.11 1106.53 9555.07 1121.78C9540.69 1132.19 9524.71 1141 9507.14 1148.22C9474.33 1161.11 9436.55 1167.55 9393.78 1167.55Z" fill="white"/>
<path d="M8379.29 1160.52C8357.35 1160.52 8337.89 1146.41 8331.07 1125.56L8163.04 611.935C8152.31 579.135 8176.75 545.425 8211.26 545.425H8251.91C8273.95 545.425 8293.48 559.663 8300.21 580.655L8452.57 1055.33C8458.11 1072.58 8445.24 1090.22 8427.12 1090.22V1090.22C8408.85 1090.22 8395.97 1072.31 8401.78 1054.99L8561.12 580.023C8568.06 559.353 8587.42 545.425 8609.22 545.425H8667.59C8689.61 545.425 8709.12 559.628 8715.88 580.584L8869.38 1056.46C8874.77 1073.14 8862.33 1090.22 8844.8 1090.22V1090.22C8827.21 1090.22 8814.76 1073.02 8820.26 1056.32L8976.88 580.303C8983.73 559.49 9003.16 545.425 9025.08 545.425H9054.58C9089.09 545.425 9113.53 579.135 9102.8 611.935L8934.77 1125.56C8927.95 1146.41 8908.49 1160.52 8886.55 1160.52H8807.28C8785.31 1160.52 8765.84 1146.38 8759.04 1125.48L8621.13 701.638C8618.06 692.195 8625.1 682.503 8635.03 682.503V682.503C8645.01 682.503 8652.05 692.287 8648.89 701.753L8506.99 1125.88C8500.07 1146.57 8480.69 1160.52 8458.88 1160.52H8379.29Z" fill="white"/>
<path d="M10623.4 1309.61C10642.9 1309.61 10660 1313.42 10674.6 1321.04C10689.6 1328.35 10701.1 1339.62 10709.4 1354.85C10717.9 1370.08 10722.1 1389.27 10722.1 1412.42V1551.79H10689.7V1415.62C10689.7 1390.34 10683.3 1371.3 10670.5 1358.5C10658 1345.41 10640.4 1338.86 10617.5 1338.86C10600.5 1338.86 10585.5 1342.36 10572.7 1349.37C10560.2 1356.07 10550.5 1365.97 10543.5 1379.07C10536.8 1391.86 10533.4 1407.4 10533.4 1425.67V1551.79H10501V1311.9H10532.1V1377.7L10527 1365.36C10534.7 1348 10546.8 1334.44 10563.6 1324.69C10580.3 1314.64 10600.3 1309.61 10623.4 1309.61ZM10911.7 1554.07C10886.7 1554.07 10864.8 1548.89 10845.9 1538.53C10827 1527.87 10812.2 1513.4 10801.6 1495.13C10790.9 1476.54 10785.6 1455.37 10785.6 1431.61C10785.6 1407.85 10790.6 1386.83 10800.6 1368.56C10811 1350.28 10825 1335.96 10842.7 1325.61C10860.6 1314.94 10880.8 1309.61 10903 1309.61C10925.5 1309.61 10945.5 1314.79 10962.8 1325.15C10980.5 1335.2 10994.4 1349.52 11004.4 1368.1C11014.5 1386.38 11019.5 1407.55 11019.5 1431.61C11019.5 1433.14 11019.4 1434.81 11019 1436.64C11019 1438.16 11019 1439.84 11019 1441.67H10810.2V1417.45H11001.7L10988.9 1427.04C10988.9 1409.68 10985.1 1394.3 10977.5 1380.89C10970.2 1367.19 10960.1 1356.52 10947.3 1348.91C10934.5 1341.29 10919.7 1337.49 10903 1337.49C10886.5 1337.49 10871.8 1341.29 10858.7 1348.91C10845.6 1356.52 10835.4 1367.19 10828.1 1380.89C10820.7 1394.6 10817.1 1410.29 10817.1 1427.96V1432.98C10817.1 1451.26 10821 1467.41 10829 1481.42C10837.2 1495.13 10848.5 1505.94 10862.8 1513.86C10877.4 1521.48 10894 1525.28 10912.6 1525.28C10927.2 1525.28 10940.8 1522.69 10953.3 1517.52C10966 1512.34 10977 1504.42 10986.2 1493.76L11004.4 1514.77C10993.8 1527.57 10980.4 1537.32 10964.2 1544.02C10948.4 1550.72 10930.9 1554.07 10911.7 1554.07ZM11161.4 1554.07C11138.8 1554.07 11121.5 1547.98 11109.3 1535.79C11097.1 1523.61 11091 1506.4 11091 1484.16V1258.89H11123.5V1482.33C11123.5 1496.34 11127 1507.16 11134 1514.77C11141.3 1522.39 11151.6 1526.2 11165 1526.2C11179.4 1526.2 11191.2 1522.08 11200.7 1513.86L11212.1 1537.16C11205.7 1542.95 11197.9 1547.22 11188.8 1549.96C11180 1552.7 11170.8 1554.07 11161.4 1554.07ZM11048.1 1338.86V1311.9H11196.6V1338.86H11048.1ZM11315.6 1551.79L11225.1 1311.9H11256.2L11338.4 1534.42H11324.3L11408.8 1311.9H11436.7L11520.3 1534.42H11506.1L11589.8 1311.9H11619.5L11528.5 1551.79H11497.9L11417.5 1342.51H11427.1L11346.2 1551.79H11315.6ZM11759.4 1554.07C11736.2 1554.07 11715.4 1548.89 11696.8 1538.53C11678.5 1527.87 11664 1513.4 11653.4 1495.13C11642.7 1476.54 11637.4 1455.37 11637.4 1431.61C11637.4 1407.55 11642.7 1386.38 11653.4 1368.1C11664 1349.82 11678.5 1335.51 11696.8 1325.15C11715.1 1314.79 11735.9 1309.61 11759.4 1309.61C11783.2 1309.61 11804.2 1314.79 11822.4 1325.15C11841 1335.51 11855.5 1349.82 11865.9 1368.1C11876.5 1386.38 11881.8 1407.55 11881.8 1431.61C11881.8 1455.37 11876.5 1476.54 11865.9 1495.13C11855.5 1513.4 11841 1527.87 11822.4 1538.53C11803.9 1548.89 11782.8 1554.07 11759.4 1554.07ZM11759.4 1525.28C11776.8 1525.28 11792.1 1521.48 11805.5 1513.86C11818.9 1505.94 11829.5 1494.97 11837.1 1480.96C11845 1466.64 11848.9 1450.19 11848.9 1431.61C11848.9 1412.73 11845 1396.28 11837.1 1382.26C11829.5 1368.25 11818.9 1357.44 11805.5 1349.82C11792.1 1341.9 11776.9 1337.94 11759.8 1337.94C11742.8 1337.94 11727.6 1341.9 11714.2 1349.82C11700.8 1357.44 11690.1 1368.25 11682.2 1382.26C11674.2 1396.28 11670.3 1412.73 11670.3 1431.61C11670.3 1450.19 11674.2 1466.64 11682.2 1480.96C11690.1 1494.97 11700.8 1505.94 11714.2 1513.86C11727.6 1521.48 11742.6 1525.28 11759.4 1525.28ZM11948.1 1551.79V1311.9H11979.2V1377.24L11976 1365.82C11982.7 1347.54 11993.9 1333.68 12009.8 1324.23C12025.6 1314.49 12045.3 1309.61 12068.7 1309.61V1341.14C12067.5 1341.14 12066.3 1341.14 12065.1 1341.14C12063.8 1340.84 12062.6 1340.68 12061.4 1340.68C12036.1 1340.68 12016.3 1348.45 12002 1363.99C11987.7 1379.22 11980.5 1401 11980.5 1429.33V1551.79H11948.1ZM12153.5 1489.64L12154.4 1448.06L12303.8 1311.9H12343.6L12238 1412.88L12219.7 1428.41L12153.5 1489.64ZM12127.9 1551.79V1212.74H12160.3V1551.79H12127.9ZM12313.9 1551.79L12213.8 1427.04L12234.8 1401.91L12353.6 1551.79H12313.9Z" fill="white"/>
<path fill-rule="evenodd" clip-rule="evenodd" d="M7350.12 403.187C7348.57 403.187 7347.13 403.658 7345.93 404.463C7345.61 404.679 7345.15 404.462 7345.15 404.076C7345.15 404.056 7345.12 404.056 7345.12 404.075C7345 404.758 7344.78 405.438 7344.43 406.089L7339.47 415.429C7338.98 416.345 7338.31 417.112 7337.53 417.707C7337.34 417.852 7337.18 418.033 7337.07 418.247C7336.86 418.651 7336.87 419.129 7337.08 419.531L7605.09 932.818C7618.06 957.658 7643.76 973.233 7671.78 973.233L7758.97 973.233C7759.97 973.233 7760.92 973.04 7761.78 972.69C7762.03 972.59 7762.3 972.559 7762.57 972.588C7762.96 972.631 7763.34 972.768 7763.72 972.904C7764.18 973.068 7764.64 973.233 7765.11 973.233C7766.12 973.233 7767.04 972.664 7767.5 971.762L7801.13 904.882C7801.15 904.844 7801.2 904.841 7801.23 904.877C7801.25 904.917 7801.31 904.91 7801.33 904.866L7820.38 850.084C7825.32 835.894 7818.31 820.319 7804.41 814.608L7766.02 798.833C7750.3 792.37 7737.36 780.561 7729.49 765.49L7561.42 443.601C7548.45 418.761 7522.75 403.187 7494.72 403.187L7350.12 403.187ZM7369.72 618.602C7341.34 564.251 7263.35 564.846 7235.81 619.624L7215.62 659.759C7205.9 679.093 7205.9 701.887 7215.62 721.22L7341.29 971.121C7341.86 972.268 7343.04 972.993 7344.32 972.993C7344.72 972.993 7345.12 972.889 7345.52 972.786C7345.93 972.68 7346.34 972.573 7346.76 972.581C7346.95 972.584 7347.14 972.62 7347.32 972.692C7348.19 973.041 7349.13 973.233 7350.12 973.233L7430.72 973.233C7487.23 973.233 7523.57 913.263 7497.42 863.171L7369.72 618.602ZM7621.13 1051C7661.85 1051 7694.86 1084.01 7694.86 1124.73C7694.86 1165.45 7661.85 1198.46 7621.13 1198.46L7483.19 1198.46C7442.47 1198.46 7409.46 1165.45 7409.46 1124.73C7409.46 1084.01 7442.47 1051 7483.19 1051L7621.13 1051ZM7816.39 475.589C7830.52 477.708 7842.8 486.386 7849.53 498.989L7866.73 531.252L7889.44 576.673C7894.98 587.741 7895.72 600.594 7891.51 612.229L7858.5 703.404C7845.34 739.754 7795.55 743.823 7776.67 710.092L7674.66 527.943C7656.32 495.197 7683.63 455.675 7720.75 461.242L7816.39 475.589Z" fill="white"/>
</svg>
